<svg xmlns="http://www.w3.org/2000/svg" viewBox="0 0 512 512" width="512" height="512">
  <defs>
    <linearGradient id="bg" x1="0%" y1="0%" x2="100%" y2="100%">
      <stop offset="0%" stop-color="#2563EB"/>
      <stop offset="100%" stop-color="#06B6D4"/>
    </linearGradient>
  </defs>
  <rect width="512" height="512" rx="115" ry="115" fill="url(#bg)"/>
  <path d="M200.8 311.2c28.4 28.4 60.8 50.4 94.4 64.8 4.8 2 10.4 0.8 14-2.8l32-32c5.6-5.6 14-6.8 21.2-3.2l56 28c8 4 12 13.2 9.6 21.6-8 28-28 50.4-54 60.4-8 3.2-16.8 4-25.2 2-48-10.4-96-38-136-78s-67.6-88-78-136c-2-8.4-1.2-17.2 2-25.2 10-26 32.4-46 60.4-54 8.4-2.4 17.6 1.6 21.6 9.6l28 56c3.6 7.2 2.4 15.6-3.2 21.2l-32 32c-3.6 3.6-4.8 9.2-2.8 14 14.4 33.6 36.4 66 64.8 94.4z" fill="none" stroke="white" stroke-width="20" stroke-linecap="round" stroke-linejoin="round"/>
</svg>
