<svg xmlns="http://www.w3.org/2000/svg" viewBox="0 0 512 512" width="512" height="512">
  <defs>
    <linearGradient id="bg" x1="0%" y1="0%" x2="100%" y2="100%">
      <stop offset="0%" stop-color="#2563EB"/>
      <stop offset="100%" stop-color="#06B6D4"/>
    </linearGradient>
  </defs>
  <rect width="512" height="512" rx="115" ry="115" fill="url(#bg)"/>
  <!-- Phone handset -->
  <path d="M168 132c12-4 36 4 52 20l36 36c12 12 16 28 8 40l-20 28c-4 6-2 14 4 20l64 64c6 6 14 8 20 4l28-20c12-8 28-4 40 8l36 36c16 16 24 40 20 52-8 28-40 56-80 60-56 4-124-28-176-80s-84-120-80-176c4-40 32-72 60-80z" fill="none" stroke="white" stroke-width="22" stroke-linejoin="round" stroke-linecap="round"/>
</svg>
